<mxfile host="app.diagrams.net" modified="2021-10-23T16:55:52.907Z" agent="5.0 (Windows NT 10.0; Win64; x64) AppleWebKit/537.36 (KHTML, like Gecko) Chrome/94.0.4606.81 Safari/537.36 Edg/94.0.992.50" etag="F0vg-vNj7AwUmz7xHw0r" version="15.2.9" type="github">
  <diagram id="yUHdPp0kAHqBiXr9JHXE" name="勇士篇">
    <mxGraphModel dx="1347" dy="1310" grid="1" gridSize="10" guides="1" tooltips="1" connect="1" arrows="1" fold="1" page="1" pageScale="1" pageWidth="827" pageHeight="1169" math="0" shadow="0">
      <root>
        <mxCell id="0" />
        <mxCell id="1" parent="0" />
        <mxCell id="y4c93qUxXDIrm90M2p12-7" value="" style="edgeStyle=orthogonalEdgeStyle;rounded=0;orthogonalLoop=1;jettySize=auto;html=1;" edge="1" parent="1" source="y4c93qUxXDIrm90M2p12-1" target="y4c93qUxXDIrm90M2p12-3">
          <mxGeometry relative="1" as="geometry" />
        </mxCell>
        <mxCell id="y4c93qUxXDIrm90M2p12-1" value="勇士出村" style="rounded=1;whiteSpace=wrap;html=1;" vertex="1" parent="1">
          <mxGeometry x="130" y="90" width="120" height="50" as="geometry" />
        </mxCell>
        <mxCell id="y4c93qUxXDIrm90M2p12-6" value="NO" style="edgeStyle=orthogonalEdgeStyle;rounded=0;orthogonalLoop=1;jettySize=auto;html=1;entryX=0.5;entryY=0;entryDx=0;entryDy=0;" edge="1" parent="1" source="y4c93qUxXDIrm90M2p12-3" target="y4c93qUxXDIrm90M2p12-5">
          <mxGeometry relative="1" as="geometry" />
        </mxCell>
        <mxCell id="y4c93qUxXDIrm90M2p12-9" value="YES" style="edgeStyle=orthogonalEdgeStyle;rounded=0;orthogonalLoop=1;jettySize=auto;html=1;entryX=0;entryY=0.5;entryDx=0;entryDy=0;" edge="1" parent="1" source="y4c93qUxXDIrm90M2p12-3" target="y4c93qUxXDIrm90M2p12-8">
          <mxGeometry relative="1" as="geometry" />
        </mxCell>
        <mxCell id="y4c93qUxXDIrm90M2p12-3" value="是否接受&lt;br&gt;屠龙任务？" style="rhombus;whiteSpace=wrap;html=1;" vertex="1" parent="1">
          <mxGeometry x="125" y="190" width="130" height="80" as="geometry" />
        </mxCell>
        <mxCell id="y4c93qUxXDIrm90M2p12-5" value="END1：继续&lt;br&gt;高等魔武学院修行" style="ellipse;whiteSpace=wrap;html=1;" vertex="1" parent="1">
          <mxGeometry x="130" y="1110" width="120" height="80" as="geometry" />
        </mxCell>
        <mxCell id="y4c93qUxXDIrm90M2p12-22" value="事件1" style="edgeStyle=orthogonalEdgeStyle;rounded=0;orthogonalLoop=1;jettySize=auto;html=1;entryX=0;entryY=0.5;entryDx=0;entryDy=0;" edge="1" parent="1" source="y4c93qUxXDIrm90M2p12-8" target="y4c93qUxXDIrm90M2p12-18">
          <mxGeometry relative="1" as="geometry" />
        </mxCell>
        <mxCell id="y4c93qUxXDIrm90M2p12-30" value="事件2" style="edgeStyle=orthogonalEdgeStyle;rounded=0;orthogonalLoop=1;jettySize=auto;html=1;entryX=0.5;entryY=0;entryDx=0;entryDy=0;" edge="1" parent="1" source="y4c93qUxXDIrm90M2p12-8" target="y4c93qUxXDIrm90M2p12-29">
          <mxGeometry relative="1" as="geometry" />
        </mxCell>
        <mxCell id="y4c93qUxXDIrm90M2p12-8" value="召集主角团小伙伴*2" style="rounded=0;whiteSpace=wrap;html=1;" vertex="1" parent="1">
          <mxGeometry x="320" y="200" width="120" height="60" as="geometry" />
        </mxCell>
        <mxCell id="y4c93qUxXDIrm90M2p12-13" style="edgeStyle=orthogonalEdgeStyle;rounded=0;orthogonalLoop=1;jettySize=auto;html=1;entryX=0.5;entryY=0;entryDx=0;entryDy=0;" edge="1" parent="1" source="y4c93qUxXDIrm90M2p12-10" target="y4c93qUxXDIrm90M2p12-12">
          <mxGeometry relative="1" as="geometry" />
        </mxCell>
        <mxCell id="y4c93qUxXDIrm90M2p12-10" value="召集主角团小伙伴*2" style="rounded=0;whiteSpace=wrap;html=1;" vertex="1" parent="1">
          <mxGeometry x="320" y="440" width="120" height="60" as="geometry" />
        </mxCell>
        <mxCell id="y4c93qUxXDIrm90M2p12-14" style="edgeStyle=orthogonalEdgeStyle;rounded=0;orthogonalLoop=1;jettySize=auto;html=1;entryX=0;entryY=0.5;entryDx=0;entryDy=0;exitX=0.5;exitY=1;exitDx=0;exitDy=0;" edge="1" parent="1" source="y4c93qUxXDIrm90M2p12-12" target="y4c93qUxXDIrm90M2p12-42">
          <mxGeometry relative="1" as="geometry" />
        </mxCell>
        <mxCell id="y4c93qUxXDIrm90M2p12-15" value="战斗失败" style="edgeLabel;html=1;align=center;verticalAlign=middle;resizable=0;points=[];" vertex="1" connectable="0" parent="y4c93qUxXDIrm90M2p12-14">
          <mxGeometry x="-0.445" relative="1" as="geometry">
            <mxPoint as="offset" />
          </mxGeometry>
        </mxCell>
        <mxCell id="y4c93qUxXDIrm90M2p12-33" value="战斗获胜" style="edgeStyle=orthogonalEdgeStyle;rounded=0;orthogonalLoop=1;jettySize=auto;html=1;entryX=0;entryY=0.5;entryDx=0;entryDy=0;" edge="1" parent="1" source="y4c93qUxXDIrm90M2p12-12" target="y4c93qUxXDIrm90M2p12-32">
          <mxGeometry relative="1" as="geometry" />
        </mxCell>
        <mxCell id="y4c93qUxXDIrm90M2p12-12" value="初级战场战斗" style="rhombus;whiteSpace=wrap;html=1;" vertex="1" parent="1">
          <mxGeometry x="326" y="600" width="108" height="70" as="geometry" />
        </mxCell>
        <mxCell id="y4c93qUxXDIrm90M2p12-25" value="意见不合" style="edgeStyle=orthogonalEdgeStyle;rounded=0;orthogonalLoop=1;jettySize=auto;html=1;entryX=0.5;entryY=0;entryDx=0;entryDy=0;" edge="1" parent="1" source="y4c93qUxXDIrm90M2p12-18" target="y4c93qUxXDIrm90M2p12-24">
          <mxGeometry relative="1" as="geometry" />
        </mxCell>
        <mxCell id="y4c93qUxXDIrm90M2p12-27" style="edgeStyle=orthogonalEdgeStyle;rounded=0;orthogonalLoop=1;jettySize=auto;html=1;exitX=1;exitY=0.5;exitDx=0;exitDy=0;" edge="1" parent="1" source="y4c93qUxXDIrm90M2p12-18">
          <mxGeometry relative="1" as="geometry">
            <mxPoint x="440" y="470" as="targetPoint" />
            <Array as="points">
              <mxPoint x="650" y="230" />
              <mxPoint x="650" y="470" />
            </Array>
          </mxGeometry>
        </mxCell>
        <mxCell id="y4c93qUxXDIrm90M2p12-28" value="意见一致" style="edgeLabel;html=1;align=center;verticalAlign=middle;resizable=0;points=[];" vertex="1" connectable="0" parent="y4c93qUxXDIrm90M2p12-27">
          <mxGeometry x="-0.5396" y="1" relative="1" as="geometry">
            <mxPoint y="-35" as="offset" />
          </mxGeometry>
        </mxCell>
        <mxCell id="y4c93qUxXDIrm90M2p12-18" value="屠龙计划商议" style="rhombus;whiteSpace=wrap;html=1;" vertex="1" parent="1">
          <mxGeometry x="530" y="190" width="100" height="80" as="geometry" />
        </mxCell>
        <mxCell id="y4c93qUxXDIrm90M2p12-26" style="edgeStyle=orthogonalEdgeStyle;rounded=0;orthogonalLoop=1;jettySize=auto;html=1;entryX=1;entryY=0.5;entryDx=0;entryDy=0;" edge="1" parent="1" source="y4c93qUxXDIrm90M2p12-24" target="y4c93qUxXDIrm90M2p12-10">
          <mxGeometry relative="1" as="geometry">
            <mxPoint x="500" y="310" as="targetPoint" />
          </mxGeometry>
        </mxCell>
        <mxCell id="y4c93qUxXDIrm90M2p12-24" value="小伙伴出走*1" style="rounded=0;whiteSpace=wrap;html=1;" vertex="1" parent="1">
          <mxGeometry x="520" y="320" width="120" height="60" as="geometry" />
        </mxCell>
        <mxCell id="y4c93qUxXDIrm90M2p12-31" style="edgeStyle=orthogonalEdgeStyle;rounded=0;orthogonalLoop=1;jettySize=auto;html=1;entryX=0.5;entryY=0;entryDx=0;entryDy=0;" edge="1" parent="1" source="y4c93qUxXDIrm90M2p12-29" target="y4c93qUxXDIrm90M2p12-10">
          <mxGeometry relative="1" as="geometry" />
        </mxCell>
        <mxCell id="y4c93qUxXDIrm90M2p12-29" value="加入佣兵工会" style="rounded=0;whiteSpace=wrap;html=1;" vertex="1" parent="1">
          <mxGeometry x="320" y="330" width="120" height="60" as="geometry" />
        </mxCell>
        <mxCell id="y4c93qUxXDIrm90M2p12-52" style="edgeStyle=orthogonalEdgeStyle;rounded=0;orthogonalLoop=1;jettySize=auto;html=1;entryX=0.5;entryY=0;entryDx=0;entryDy=0;exitX=0.5;exitY=0;exitDx=0;exitDy=0;" edge="1" parent="1" source="y4c93qUxXDIrm90M2p12-58" target="y4c93qUxXDIrm90M2p12-12">
          <mxGeometry relative="1" as="geometry">
            <mxPoint x="740" y="550" as="sourcePoint" />
            <Array as="points">
              <mxPoint x="780" y="540" />
              <mxPoint x="380" y="540" />
            </Array>
          </mxGeometry>
        </mxCell>
        <mxCell id="y4c93qUxXDIrm90M2p12-53" value="再次投入战斗" style="edgeLabel;html=1;align=center;verticalAlign=middle;resizable=0;points=[];" vertex="1" connectable="0" parent="y4c93qUxXDIrm90M2p12-52">
          <mxGeometry x="0.0821" y="5" relative="1" as="geometry">
            <mxPoint as="offset" />
          </mxGeometry>
        </mxCell>
        <mxCell id="y4c93qUxXDIrm90M2p12-60" value="否" style="edgeLabel;html=1;align=center;verticalAlign=middle;resizable=0;points=[];" vertex="1" connectable="0" parent="y4c93qUxXDIrm90M2p12-52">
          <mxGeometry x="-0.5197" y="1" relative="1" as="geometry">
            <mxPoint x="69" y="29" as="offset" />
          </mxGeometry>
        </mxCell>
        <mxCell id="y4c93qUxXDIrm90M2p12-59" value="" style="edgeStyle=orthogonalEdgeStyle;rounded=0;orthogonalLoop=1;jettySize=auto;html=1;" edge="1" parent="1" source="y4c93qUxXDIrm90M2p12-32" target="y4c93qUxXDIrm90M2p12-58">
          <mxGeometry relative="1" as="geometry" />
        </mxCell>
        <mxCell id="y4c93qUxXDIrm90M2p12-32" value="收割赏金，改良装备" style="rounded=0;whiteSpace=wrap;html=1;" vertex="1" parent="1">
          <mxGeometry x="520" y="605" width="120" height="60" as="geometry" />
        </mxCell>
        <mxCell id="y4c93qUxXDIrm90M2p12-44" value="失败" style="edgeStyle=orthogonalEdgeStyle;rounded=0;orthogonalLoop=1;jettySize=auto;html=1;" edge="1" parent="1" source="y4c93qUxXDIrm90M2p12-42" target="y4c93qUxXDIrm90M2p12-43">
          <mxGeometry relative="1" as="geometry" />
        </mxCell>
        <mxCell id="y4c93qUxXDIrm90M2p12-56" style="edgeStyle=orthogonalEdgeStyle;rounded=0;orthogonalLoop=1;jettySize=auto;html=1;entryX=0.5;entryY=1;entryDx=0;entryDy=0;" edge="1" parent="1" source="y4c93qUxXDIrm90M2p12-42" target="y4c93qUxXDIrm90M2p12-32">
          <mxGeometry relative="1" as="geometry" />
        </mxCell>
        <mxCell id="y4c93qUxXDIrm90M2p12-57" value="成功" style="edgeLabel;html=1;align=center;verticalAlign=middle;resizable=0;points=[];" vertex="1" connectable="0" parent="y4c93qUxXDIrm90M2p12-56">
          <mxGeometry x="-0.28" y="-1" relative="1" as="geometry">
            <mxPoint as="offset" />
          </mxGeometry>
        </mxCell>
        <mxCell id="y4c93qUxXDIrm90M2p12-42" value="开发新魔法" style="rhombus;whiteSpace=wrap;html=1;" vertex="1" parent="1">
          <mxGeometry x="520" y="790" width="120" height="70" as="geometry" />
        </mxCell>
        <mxCell id="y4c93qUxXDIrm90M2p12-45" style="edgeStyle=orthogonalEdgeStyle;rounded=0;orthogonalLoop=1;jettySize=auto;html=1;entryX=1;entryY=0.5;entryDx=0;entryDy=0;" edge="1" parent="1" source="y4c93qUxXDIrm90M2p12-43" target="y4c93qUxXDIrm90M2p12-46">
          <mxGeometry relative="1" as="geometry">
            <mxPoint x="580" y="1070" as="targetPoint" />
          </mxGeometry>
        </mxCell>
        <mxCell id="y4c93qUxXDIrm90M2p12-43" value="小伙伴出走" style="rounded=0;whiteSpace=wrap;html=1;" vertex="1" parent="1">
          <mxGeometry x="520" y="960" width="120" height="60" as="geometry" />
        </mxCell>
        <mxCell id="y4c93qUxXDIrm90M2p12-47" style="edgeStyle=orthogonalEdgeStyle;rounded=0;orthogonalLoop=1;jettySize=auto;html=1;" edge="1" parent="1" source="y4c93qUxXDIrm90M2p12-46" target="y4c93qUxXDIrm90M2p12-5">
          <mxGeometry relative="1" as="geometry" />
        </mxCell>
        <mxCell id="y4c93qUxXDIrm90M2p12-48" value="是" style="edgeLabel;html=1;align=center;verticalAlign=middle;resizable=0;points=[];" vertex="1" connectable="0" parent="y4c93qUxXDIrm90M2p12-47">
          <mxGeometry x="0.1345" y="6" relative="1" as="geometry">
            <mxPoint x="84" y="-12" as="offset" />
          </mxGeometry>
        </mxCell>
        <mxCell id="y4c93qUxXDIrm90M2p12-55" value="否" style="edgeStyle=orthogonalEdgeStyle;rounded=0;orthogonalLoop=1;jettySize=auto;html=1;entryX=-0.011;entryY=0.605;entryDx=0;entryDy=0;entryPerimeter=0;" edge="1" parent="1" source="y4c93qUxXDIrm90M2p12-46" target="y4c93qUxXDIrm90M2p12-42">
          <mxGeometry x="-0.8086" relative="1" as="geometry">
            <Array as="points">
              <mxPoint x="380" y="832" />
            </Array>
            <mxPoint as="offset" />
          </mxGeometry>
        </mxCell>
        <mxCell id="y4c93qUxXDIrm90M2p12-46" value="小伙伴是否全&lt;br&gt;部出走？" style="rhombus;whiteSpace=wrap;html=1;" vertex="1" parent="1">
          <mxGeometry x="320" y="955" width="120" height="70" as="geometry" />
        </mxCell>
        <mxCell id="y4c93qUxXDIrm90M2p12-61" style="edgeStyle=orthogonalEdgeStyle;rounded=0;orthogonalLoop=1;jettySize=auto;html=1;entryX=0.5;entryY=0;entryDx=0;entryDy=0;" edge="1" parent="1" source="y4c93qUxXDIrm90M2p12-58" target="y4c93qUxXDIrm90M2p12-62">
          <mxGeometry relative="1" as="geometry">
            <mxPoint x="785" y="800" as="targetPoint" />
          </mxGeometry>
        </mxCell>
        <mxCell id="y4c93qUxXDIrm90M2p12-58" value="战队是否晋级？" style="rhombus;whiteSpace=wrap;html=1;rounded=0;" vertex="1" parent="1">
          <mxGeometry x="727.5" y="597.5" width="110" height="75" as="geometry" />
        </mxCell>
        <mxCell id="y4c93qUxXDIrm90M2p12-64" style="edgeStyle=orthogonalEdgeStyle;rounded=0;orthogonalLoop=1;jettySize=auto;html=1;" edge="1" parent="1" source="y4c93qUxXDIrm90M2p12-62">
          <mxGeometry relative="1" as="geometry">
            <mxPoint x="782.5" y="910" as="targetPoint" />
          </mxGeometry>
        </mxCell>
        <mxCell id="y4c93qUxXDIrm90M2p12-71" style="edgeStyle=orthogonalEdgeStyle;rounded=0;orthogonalLoop=1;jettySize=auto;html=1;" edge="1" parent="1" source="y4c93qUxXDIrm90M2p12-62">
          <mxGeometry relative="1" as="geometry">
            <mxPoint x="880" y="825" as="targetPoint" />
          </mxGeometry>
        </mxCell>
        <mxCell id="y4c93qUxXDIrm90M2p12-62" value="中级战场战斗" style="rhombus;whiteSpace=wrap;html=1;" vertex="1" parent="1">
          <mxGeometry x="725" y="790" width="115" height="70" as="geometry" />
        </mxCell>
        <mxCell id="y4c93qUxXDIrm90M2p12-63" value="是" style="text;html=1;align=center;verticalAlign=middle;resizable=0;points=[];autosize=1;strokeColor=none;fillColor=none;" vertex="1" parent="1">
          <mxGeometry x="785" y="720" width="30" height="20" as="geometry" />
        </mxCell>
        <mxCell id="y4c93qUxXDIrm90M2p12-65" value="&lt;b&gt;&lt;font style=&quot;font-size: 22px&quot;&gt;...&lt;/font&gt;&lt;/b&gt;" style="text;html=1;align=center;verticalAlign=middle;resizable=0;points=[];autosize=1;strokeColor=none;fillColor=none;" vertex="1" parent="1">
          <mxGeometry x="767.5" y="920" width="30" height="20" as="geometry" />
        </mxCell>
        <mxCell id="y4c93qUxXDIrm90M2p12-70" style="edgeStyle=orthogonalEdgeStyle;rounded=0;orthogonalLoop=1;jettySize=auto;html=1;entryX=1;entryY=0.5;entryDx=0;entryDy=0;" edge="1" parent="1" source="y4c93qUxXDIrm90M2p12-69" target="y4c93qUxXDIrm90M2p12-43">
          <mxGeometry relative="1" as="geometry" />
        </mxCell>
        <mxCell id="y4c93qUxXDIrm90M2p12-69" value="各种可能&lt;br&gt;的失败" style="text;html=1;align=center;verticalAlign=middle;resizable=0;points=[];autosize=1;strokeColor=none;fillColor=none;" vertex="1" parent="1">
          <mxGeometry x="752.5" y="975" width="60" height="30" as="geometry" />
        </mxCell>
        <mxCell id="y4c93qUxXDIrm90M2p12-73" style="edgeStyle=orthogonalEdgeStyle;rounded=0;orthogonalLoop=1;jettySize=auto;html=1;" edge="1" parent="1" source="y4c93qUxXDIrm90M2p12-72">
          <mxGeometry relative="1" as="geometry">
            <mxPoint x="920" y="910" as="targetPoint" />
          </mxGeometry>
        </mxCell>
        <mxCell id="y4c93qUxXDIrm90M2p12-72" value="各种可能&lt;br&gt;的成功" style="text;html=1;align=center;verticalAlign=middle;resizable=0;points=[];autosize=1;strokeColor=none;fillColor=none;" vertex="1" parent="1">
          <mxGeometry x="890" y="815" width="60" height="30" as="geometry" />
        </mxCell>
        <mxCell id="y4c93qUxXDIrm90M2p12-76" style="edgeStyle=orthogonalEdgeStyle;rounded=0;orthogonalLoop=1;jettySize=auto;html=1;entryX=0.583;entryY=-0.029;entryDx=0;entryDy=0;entryPerimeter=0;" edge="1" parent="1" target="y4c93qUxXDIrm90M2p12-75">
          <mxGeometry relative="1" as="geometry">
            <mxPoint x="920" y="990" as="sourcePoint" />
          </mxGeometry>
        </mxCell>
        <mxCell id="y4c93qUxXDIrm90M2p12-74" value="&lt;b&gt;&lt;font style=&quot;font-size: 22px&quot;&gt;...&lt;/font&gt;&lt;/b&gt;" style="text;html=1;align=center;verticalAlign=middle;resizable=0;points=[];autosize=1;strokeColor=none;fillColor=none;" vertex="1" parent="1">
          <mxGeometry x="905" y="920" width="30" height="20" as="geometry" />
        </mxCell>
        <mxCell id="y4c93qUxXDIrm90M2p12-75" value="END2：成功屠龙，&lt;br&gt;传奇完结" style="ellipse;whiteSpace=wrap;html=1;" vertex="1" parent="1">
          <mxGeometry x="850" y="1100" width="120" height="80" as="geometry" />
        </mxCell>
      </root>
    </mxGraphModel>
  </diagram>
</mxfile>
